<?xml version="1.0" encoding="utf-8"?>
<!-- Generator: Adobe Illustrator 18.0.0, SVG Export Plug-In . SVG Version: 6.00 Build 0)  -->
<!DOCTYPE svg PUBLIC "-//W3C//DTD SVG 1.1//EN" "http://www.w3.org/Graphics/SVG/1.1/DTD/svg11.dtd" [
	<!ENTITY ns_flows "http://ns.adobe.com/Flows/1.0/">
	<!ENTITY ns_extend "http://ns.adobe.com/Extensibility/1.0/">
	<!ENTITY ns_ai "http://ns.adobe.com/AdobeIllustrator/10.0/">
	<!ENTITY ns_graphs "http://ns.adobe.com/Graphs/1.0/">
	<!ENTITY ns_vars "http://ns.adobe.com/Variables/1.0/">
	<!ENTITY ns_imrep "http://ns.adobe.com/ImageReplacement/1.0/">
	<!ENTITY ns_sfw "http://ns.adobe.com/SaveForWeb/1.0/">
	<!ENTITY ns_custom "http://ns.adobe.com/GenericCustomNamespace/1.0/">
	<!ENTITY ns_adobe_xpath "http://ns.adobe.com/XPath/1.0/">
]>
<svg version="1.1" id="Layer_1" xmlns:x="&ns_extend;" xmlns:i="&ns_ai;" xmlns:graph="&ns_graphs;"
	 xmlns="http://www.w3.org/2000/svg" xmlns:xlink="http://www.w3.org/1999/xlink" xmlns:a="http://ns.adobe.com/AdobeSVGViewerExtensions/3.0/"
	 x="0px" y="0px" viewBox="0 0 30 30" enable-background="new 0 0 30 30" xml:space="preserve">
<metadata>
	<sfw  xmlns="&ns_sfw;">
		<slices></slices>
		<sliceSourceBounds  width="29.9" height="24.9" x="0" y="-27.5" bottomLeftOrigin="true"></sliceSourceBounds>
	</sfw>
</metadata>
<path fill="#FFFFFF" d="M20.4,19.2l-3.7-2.3l0.1,4.3l-3.5,0l0.1-4.4l-3.6,2.3l-1.8-3.1l3.8-2l-3.8-1.9l1.8-3l3.6,2.3l-0.1-4.3l3.6,0
	l-0.1,4.4l3.7-2.3l1.7,3l-3.7,2l3.8,2L20.4,19.2L20.4,19.2z M5.2,7.6C-6.5,18.2,2.9,33.4,20.9,25l5.9,1.5l-2.1-4.4
	c7.4-7.6,6.7-15,0-18.9c1.6,1.3,2.7,2.5,2.8,3.5C21.8-1.2,7.7,2.9,2.9,12C3.2,10.8,4.1,9.3,5.2,7.6L5.2,7.6z M7.3,8
	c5-4.2,13.7-5.7,17.6-2c3.9,3.7,2.5,11.2-2.6,15.5c-5,4.2-13.1,4.6-17,0.9C1.4,18.7,2.3,12.2,7.3,8L7.3,8z"/>
</svg>
