<svg xmlns="http://www.w3.org/2000/svg" viewBox="0 0 60 60.01">
  <path class="center-c" fill="#FFFFFF" d="M29.89 36.4a6.47 6.47 0 1 1 6.46-6.48 6.46 6.46 0 0 1-6.46 6.48"/>
  <path class="circles" fill="#FFFFFF" d="M42.48 32.92a3 3 0 1 1 3-3 3 3 0 0 1-3 3m10.92 2.81a2.86 2.86 0 1 1 .06-.24c0 .07 0 .15-.06.24M51.29 28a3 3 0 1 1 2.22-3.59 3.14 3.14 0 0 1 0 1.17A2.87 2.87 0 0 1 51.29 28m10.62 7.4a3 3 0 1 1-2.42-3.46A3 3 0 0 1 62 35.13a.77.77 0 0 0-.06.27m-2.46-7.49a3 3 0 1 1 2.45-3.43 3.32 3.32 0 0 1 0 .77 3 3 0 0 1-2.48 2.66M57.4 45.74a3 3 0 1 1 .37-1.23 2.69 2.69 0 0 1-.37 1.23m-1.08-27.43a3 3 0 1 1 1.14-4.08 2.79 2.79 0 0 1 .37 1.77 3 3 0 0 1-1.51 2.35"/>
  <path class="c" fill="#FFFFFF" d="M30 60a30 30 0 1 1 0-60 29.71 29.71 0 0 1 18.22 6.17L44.55 11A24 24 0 0 0 6 30a24 24 0 0 0 38.56 19.06l3.66 4.79A29.74 29.74 0 0 1 30 60z"/>
</svg>
