<?xml version="1.0" encoding="utf-8"?>
<!-- Generator: Adobe Illustrator 16.0.0, SVG Export Plug-In . SVG Version: 6.00 Build 0)  -->
<!DOCTYPE svg PUBLIC "-//W3C//DTD SVG 1.1//EN" "http://www.w3.org/Graphics/SVG/1.1/DTD/svg11.dtd">
<svg version="1.1" id="Layer_1" xmlns="http://www.w3.org/2000/svg" xmlns:xlink="http://www.w3.org/1999/xlink" x="0px" y="0px"
	 width="400px" height="400px" viewBox="0 0 400 400" enable-background="new 0 0 400 400" xml:space="preserve">
<g xmlns:svg="http://www.w3.org/2000/svg" xmlns:rdf="http://www.w3.org/1999/02/22-rdf-syntax-ns#" xmlns:cc="http://web.resource.org/cc/" xmlns:dc="http://purl.org/dc/elements/1.1/">
	<circle fill="#FFFFFF" cx="200" cy="200" r="200"/>
</g>
<g id="Layer_2">
</g>
<g id="Layer_3">
	<g id="layer1" transform="translate(-256.6798,-531.7963)">
		<path id="text5540" fill="#FFFFFF" d="M491.731,765.946c-23.566,25.261-44.075,37.892-61.522,37.892
			c-11.197,0-21.614-4.297-31.25-12.892v10.353c0,11.979,1.822,24.022,5.469,36.133c4.167,13.41,6.25,22.266,6.25,26.562
			c0,5.988-1.888,10.938-5.664,14.844c-3.775,3.906-8.463,5.858-14.062,5.858c-5.729,0-10.285-2.278-13.672-6.836
			c-3.385-4.558-5.078-10.026-5.078-16.405c0-4.688,1.693-13.151,5.078-25.392c3.906-13.542,5.859-26.692,5.859-39.453V619.461
			h32.227v115.82c0,11.719,1.011,20.312,3.027,25.781c2.019,5.469,5.6,9.93,10.742,13.379c5.144,3.45,10.971,5.176,17.479,5.176
			c11.589,0,26.628-7.941,45.117-23.828V619.461h32.422v135.742c0,11.459,1.172,19.368,3.517,23.73
			c2.344,4.361,6.314,6.543,11.914,6.543c8.854,0,14.583-8.659,17.188-25.977h7.031c-2.476,29.558-14.975,44.336-37.5,44.336
			c-9.767,0-17.871-3.289-24.316-9.863C495.541,787.397,492.121,778.055,491.731,765.946L491.731,765.946z"/>
	</g>
</g>
</svg>
