<?xml version="1.0" encoding="UTF-8" standalone="no"?>
<!-- Created with Inkscape (http://www.inkscape.org/) -->

<svg
   xmlns:svg="http://www.w3.org/2000/svg"
   xmlns="http://www.w3.org/2000/svg"
   version="1.1"
   width="90"
   height="90"
   id="svg2948">
  <defs
     id="defs2950" />
  <g
     transform="translate(121.06306,-355.93976)"
     id="layer1">
    <path
       d="m -101.47577,400.00486 c -0.0431,8.1975 5.967822,13.08438 15.560005,10.8625 l 0,-21.725 c -9.713433,-2.95812 -15.519375,3.02656 -15.560005,10.8625 m 15.853442,-42.27625 13.21125,0 0,62.53344 c -12.663437,2.07031 -24.79187,3.38344 -33.468442,-1.46813 -11.17187,-6.24625 -12.07,-26.09562 -3.22968,-34.93625 4.48218,-4.48187 13.505622,-7.63718 23.193435,-5.57812 l 0,-19.67 c -0.02531,-0.41688 -0.04875,-0.83188 0.293437,-0.88094"
       id="path2838"
       style="fill:#FFFFFF;fill-opacity:1;fill-rule:evenodd;stroke:none" />
    <path
       d="m -50.979419,371.52699 -13.211251,0 0,-13.79844 13.211251,0 0,13.79844 z"
       id="path2840"
       style="fill:#FFFFFF;fill-opacity:1;fill-rule:evenodd;stroke:none" />
    <path
       d="m -50.979389,378.51405 c -0.015,9.72844 -0.0128,16.71906 -0.01375,28.53781 -0.56125,11.61469 -0.430625,20.86375 -4.683438,26.42125 -0.83875,1.09594 -2.62,2.69469 -4.110312,3.81688 -1.251564,0.94218 -3.636876,2.85281 -4.990939,2.93593 -1.365,0.0838 -4.871875,-1.895 -6.459062,-2.6425 -2.084063,-0.98156 -4.010625,-2.285 -6.165,-2.93562 5.025312,-3.11406 9.795625,-5.44875 11.743125,-11.74344 1.69375,-5.47437 1.468125,-13.40719 1.468125,-21.13812 0,-7.63375 0.03406,-16.50875 0.03406,-23.24875 l 13.177189,-0.003 z"
       id="path2860"
       style="fill:#FFFFFF;fill-opacity:1;fill-rule:evenodd;stroke:none" />
  </g>
</svg>
